<svg height="496pt" viewBox="0 0 496 496" width="496pt" xmlns="http://www.w3.org/2000/svg"><path d="m168 168h160v160h-160zm0 0" fill="#d80027"/><path d="m456 8h-416c-17.671875 0-32 14.328125-32 32v416c0 17.671875 14.328125 32 32 32h416c17.671875 0 32-14.328125 32-32v-416c0-17.671875-14.328125-32-32-32zm0 416c0 17.671875-14.328125 32-32 32h-352c-17.671875 0-32-14.328125-32-32v-352c0-17.671875 14.328125-32 32-32h352c17.671875 0 32 14.328125 32 32zm0 0" fill="#414042"/><g fill="#231f20"><path d="m424 40h-352c-17.671875 0-32 14.328125-32 32v352c0 17.671875 14.328125 32 32 32h352c17.671875 0 32-14.328125 32-32v-352c0-17.671875-14.328125-32-32-32zm-96 288h-160v-160h160zm0 0"/><path d="m424 40h-352c-17.671875 0-32 14.328125-32 32v352c0 17.671875 14.328125 32 32 32h352c17.671875 0 32-14.328125 32-32v-352c0-17.671875-14.328125-32-32-32zm-96 288h-160v-160h160zm0 0"/><path d="m456 496h-416c-22.082031-.027344-39.9726562-17.917969-40-40v-416c.0273438-22.082031 17.917969-39.9726562 40-40h416c22.082031.0273438 39.972656 17.917969 40 40v416c-.027344 22.082031-17.917969 39.972656-40 40zm-416-480c-13.253906 0-24 10.746094-24 24v416c0 13.253906 10.746094 24 24 24h416c13.253906 0 24-10.746094 24-24v-416c0-13.253906-10.746094-24-24-24zm0 0"/></g></svg>